<mxfile host="app.diagrams.net" modified="2022-12-02T10:48:24.947Z" agent="5.0 (Windows NT 10.0; Win64; x64) AppleWebKit/537.36 (KHTML, like Gecko) Chrome/107.0.0.0 Safari/537.36" etag="Vv1JJwgUa0seFshzOXbK" version="20.6.0" type="github">
  <diagram id="wBjWxPdBR-myqsDu7f4b" name="第 1 页">
    <mxGraphModel dx="1038" dy="1336" grid="1" gridSize="10" guides="1" tooltips="1" connect="1" arrows="1" fold="1" page="0" pageScale="1" pageWidth="827" pageHeight="1169" math="0" shadow="0">
      <root>
        <mxCell id="0" />
        <mxCell id="1" parent="0" />
        <mxCell id="KufF_cPRl6Ib_6nAEm4H-1" value="&lt;h1 style=&quot;font-size: 35px;&quot;&gt;金涛大傻逼&lt;/h1&gt;" style="text;html=1;strokeColor=none;fillColor=none;align=center;verticalAlign=middle;whiteSpace=wrap;rounded=0;" parent="1" vertex="1">
          <mxGeometry x="80" y="-500" width="360" height="100" as="geometry" />
        </mxCell>
        <mxCell id="KufF_cPRl6Ib_6nAEm4H-3" value="就是大傻逼" style="rounded=0;whiteSpace=wrap;html=1;fontFamily=Helvetica;fontSize=35;" parent="1" vertex="1">
          <mxGeometry x="140" y="-240" width="240" height="60" as="geometry" />
        </mxCell>
        <mxCell id="KufF_cPRl6Ib_6nAEm4H-2" value="" style="curved=1;endArrow=classic;html=1;rounded=0;fontFamily=Helvetica;fontSize=35;exitX=0.5;exitY=1;exitDx=0;exitDy=0;" parent="1" source="KufF_cPRl6Ib_6nAEm4H-1" edge="1">
          <mxGeometry width="50" height="50" relative="1" as="geometry">
            <mxPoint x="410" y="-280" as="sourcePoint" />
            <mxPoint x="250" y="-240" as="targetPoint" />
            <Array as="points">
              <mxPoint x="250" y="-320" />
            </Array>
          </mxGeometry>
        </mxCell>
      </root>
    </mxGraphModel>
  </diagram>
</mxfile>
